<svg xmlns="http://www.w3.org/2000/svg" viewBox="0 0 128 128">
  <defs>
    <linearGradient id="bg" x1="0%" y1="0%" x2="100%" y2="100%">
      <stop offset="0%" style="stop-color:#238636"/>
      <stop offset="100%" style="stop-color:#1a7f37"/>
    </linearGradient>
  </defs>
  <rect width="128" height="128" rx="24" fill="url(#bg)"/>
  <path fill="#fff" d="M64 20c-24.3 0-44 19.7-44 44 0 19.4 12.6 35.9 30.1 41.7 2.2.4 3-1 3-2.1v-7.3c-12.3 2.7-14.9-5.2-14.9-5.2-2-5.1-4.9-6.5-4.9-6.5-4-2.7.3-2.7.3-2.7 4.4.3 6.8 4.6 6.8 4.6 3.9 6.7 10.3 4.8 12.8 3.7.4-2.9 1.5-4.8 2.8-5.9-9.7-1.1-19.9-4.9-19.9-21.7 0-4.8 1.7-8.7 4.5-11.8-.4-1.1-2-5.6.4-11.7 0 0 3.7-1.2 12.1 4.5 3.5-1 7.3-1.5 11-1.5s7.5.5 11 1.5c8.4-5.7 12.1-4.5 12.1-4.5 2.4 6.1.8 10.6.4 11.7 2.8 3.1 4.5 7 4.5 11.8 0 16.8-10.2 20.6-19.9 21.7 1.6 1.3 3 3.9 3 7.9v11.7c0 1.2.8 2.5 3 2.1 17.5-5.8 30.1-22.3 30.1-41.7 0-24.3-19.7-44-44-44z"/>
  <circle cx="100" cy="100" r="28" fill="#fff"/>
  <path fill="#238636" d="M100 78c-12.2 0-22 9.8-22 22s9.8 22 22 22 22-9.8 22-22-9.8-22-22-22zm9.7 18.7h-7v7c0 1.5-1.2 2.7-2.7 2.7s-2.7-1.2-2.7-2.7v-7h-7c-1.5 0-2.7-1.2-2.7-2.7s1.2-2.7 2.7-2.7h7v-7c0-1.5 1.2-2.7 2.7-2.7s2.7 1.2 2.7 2.7v7h7c1.5 0 2.7 1.2 2.7 2.7s-1.2 2.7-2.7 2.7z"/>
</svg>
